<?xml version="1.0" encoding="UTF-8"?>
<svg xmlns="http://www.w3.org/2000/svg" xmlns:xlink="http://www.w3.org/1999/xlink" viewBox="0 0 512.5 952.7">
  <defs>
    <style>
      .cls-1, .cls-2 {
        fill: #fff;
      }

      .cls-2 {
        stroke: #000;
      }

      .cls-2, .cls-3 {
        stroke-miterlimit: 10;
      }

      .cls-4 {
        fill: none;
      }

      .cls-5 {
        clip-path: url(#clippath-1);
      }

      .cls-3 {
        stroke: #211915;
      }

      .cls-6 {
        clip-path: url(#clippath);
      }
    </style>
    <clipPath id="clippath">
      <rect class="cls-4" x="53.2" y="0" width="203" height="952.7"/>
    </clipPath>
    <clipPath id="clippath-1">
      <rect class="cls-4" x="256.3" y="0" width="203" height="952.7"/>
    </clipPath>
  </defs>
  <g id="Camada_2" data-name="Camada 2">
    <g id="Camada_1" data-name="Camada 1">
      <g id="Camada_2-2" data-name="Camada 2">
        <rect class="cls-3" x=".5" y="258.9" width="511.5" height="507.9"/>
      </g>
    </g>
  </g>
  <g id="Camada_1-2" data-name="Camada 1">
    <g id="Camada_21" data-name="Camada 21">
      <g>
        <g id="_Repetição_do_espelho_" data-name="&amp;lt;Repetição do espelho&amp;gt;">
          <g class="cls-6">
            <g>
              <path class="cls-1" d="M330.2,472c2.2,53.5-53.7,80.1-66.1,81.9-4.4.6-8.5.5-8.5.5-11.4,0-20-5.2-23.9-7.3-1.1-.6-.3-.2-12.2-8.1-4.8-3.2-8.7-5.8-9.3-6.1-12.1-7.9-33.1-13.1-34.2-13.3-18.6-4-63.4-7.1-122.8-4,12.4-2.1,39.5-6.9,65.6-13.4,10-2.5,16.1-4.4,28.2-8.1,12.9-3.9,19.3-5.9,21.9-8,10.6-8.7,6.6-20.2,14.5-40.4,1.7-4.4,8.4-21,22.4-33.1,17.2-14.9,38.6-17.2,50.5-17.2,41.7,5.9,72.5,39.4,74,76.8h0Z"/>
              <path class="cls-1" d="M189.5,527.8c.3,5.4,1,11.5,2.2,18,1.6,8.4,3.7,15.9,6,22.1,4.7,6.2,12.6,15.5,24,24.8,10.2,8.3,29.6,24,38.2,18.9,7.6-4.5,5.9-24.9-2.9-49.3-3.6-.2-9.4-1-15.8-3.5-13.2-5-17.7-12.8-32-21.7-4.1-2.5-10.7-6.2-19.7-9.4h0Z"/>
              <circle cx="256.3" cy="495.7" r="40.6"/>
              <path class="cls-1" d="M287.3,501.8c0,16.8-15.4,28.3-27.4,30.5-1.7.3-2.9.4-3.5.4-13.7.5-34.4-11-34.7-30.5-.2-18.2,17.2-32.2,34.7-31.3,15.6.9,30.9,13.7,30.9,30.9h0Z"/>
              <path d="M286.9,496.8c1.2,17.5-14.4,31.1-27.4,32.7-1.6.2-2.9.2-4.1.1-15-.4-24.8-10.5-26-11.9-6.3-6.8-8.5-14.3-9.3-18.1,0-1,.2-2.5.4-4.4.8-6.7,2-12.1,2.7-13.3,6.1-9.8,21-16.4,35.2-13.6,11.9,2.3,27.2,11.9,28.4,28.4h0Z"/>
              <path d="M220.1,591.5c-.5-.4-1.1-.8-1.6-1.3,2.1-26.7-.6-34.9-2.9-37.7,0-.1-1.2-1.6-2.8-3.5-4.7-5.8-8.4-9.6-8.4-9.7,0,0,4.4,4.9,10.8,10.6,2.1,1.8,3.8,3.3,5.1,4.3-.1,12.4-.2,24.8-.3,37.2h0Z"/>
            </g>
          </g>
        </g>
        <g id="_Repetição_do_espelho_3" data-name="&amp;lt;Repetição do espelho&amp;gt;3">
          <g class="cls-5">
            <g>
              <path class="cls-1" d="M182.3,472c-2.2,53.5,53.7,80.1,66.1,81.9,4.4.6,8.5.5,8.5.5,11.4,0,20-5.2,23.9-7.3,1.1-.6.3-.2,12.2-8.1,4.8-3.2,8.7-5.8,9.3-6.1,12.1-7.9,33.1-13.1,34.2-13.3,18.6-4,63.4-7.1,122.9-4-12.4-2.1-39.5-6.9-65.6-13.4-10-2.5-16.1-4.4-28.2-8.1-12.9-3.9-19.3-5.9-21.9-8-10.6-8.7-6.6-20.2-14.5-40.4-1.7-4.4-8.4-21-22.4-33.1-17.2-14.9-38.6-17.2-50.5-17.2-41.7,5.9-72.5,39.4-74,76.8h0Z"/>
              <path class="cls-1" d="M323,527.8c-.3,5.4-1,11.5-2.2,18-1.6,8.4-3.7,15.9-6,22.1-4.7,6.2-12.5,15.5-24,24.8-10.2,8.3-29.6,24-38.2,18.9-7.6-4.5-5.9-24.9,2.9-49.3,3.6-.2,9.4-1,15.8-3.5,13.2-5,17.7-12.8,32-21.7,4.1-2.5,10.7-6.2,19.7-9.4h0Z"/>
              <circle cx="256.3" cy="495.7" r="40.6"/>
              <path class="cls-1" d="M225.2,501.8c0,16.8,15.4,28.3,27.4,30.5,1.7.3,2.9.4,3.5.4,13.7.5,34.4-11,34.7-30.5.2-18.2-17.2-32.2-34.7-31.3-15.6.9-30.9,13.7-30.9,30.9h0Z"/>
              <path d="M225.6,496.8c-1.2,17.5,14.4,31.1,27.4,32.7,1.6.2,2.9.2,4.1.1,15-.4,24.8-10.5,26-11.9,6.3-6.8,8.5-14.3,9.3-18.1,0-1-.2-2.5-.4-4.4-.8-6.7-2-12.1-2.7-13.3-6.1-9.8-21-16.4-35.2-13.6-11.9,2.3-27.2,11.9-28.4,28.4h0Z"/>
              <path d="M292.4,591.5c.5-.4,1-.8,1.6-1.3-2.1-26.7.6-34.9,2.9-37.7,0-.1,1.2-1.6,2.8-3.5,4.7-5.8,8.4-9.6,8.4-9.7s-4.4,4.9-10.8,10.6c-2.1,1.8-3.8,3.3-5.1,4.3.1,12.4.2,24.8.3,37.2h0Z"/>
            </g>
          </g>
        </g>
      </g>
    </g>
    <circle cx="256.3" cy="495.2" r="39.1"/>
    <circle class="cls-2" cx="256.3" cy="495.2" r="36.9"/>
    <ellipse cx="256.3" cy="492.8" rx="36.5" ry="34.8"/>
  </g>
  <g id="Camada_6" data-name="Camada 6">
    <g id="Camada_7" data-name="Camada 7">
      <g>
        <path class="cls-1" d="M152.6,657.1v-29c0-4.7,0-7.2-3.8-8.6h8l9.4,33.3,9.4-33.3h7.7c-3.8,1.3-3.8,3.9-3.8,8.6v29c0,4.7,0,7.2,3.8,8.6h-11.5c3.8-1.3,3.8-3.9,3.8-8.6v-35.2l-12.2,43.8h-.7l1.5-5.3-10.9-38.9v35.6c0,4.7,0,7.2,3.8,8.6h-8.2c3.8-1.3,3.8-3.9,3.8-8.6Z"/>
        <path class="cls-1" d="M189,657.1v-29c0-4.7,0-7.2-3.8-8.6h11.5c-3.8,1.3-3.8,3.9-3.8,8.6v29c0,4.7,0,7.2,3.8,8.6h-11.5c3.8-1.3,3.8-3.9,3.8-8.6Z"/>
        <path class="cls-1" d="M202.4,657.1v-29c0-4.7,0-7.2-3.8-8.6h11.5c-3.8,1.3-3.8,3.9-3.8,8.6v36.9h7.9c4.7,0,6.5-.9,8.6-9v10.6c-1.1-.9-5.6-.9-8.6-.9h-15.6c3.8-1.3,3.8-3.9,3.8-8.6Z"/>
        <path class="cls-1" d="M243.2,659.6l-3.4-19.8c-2.6,0-4.5,0-6.1.5l-3.4,19.2c-.4,3.1-.1,5,2.7,6.1h-8.2c4-1.3,4.4-3.9,5.3-8.6l2.8-16.4c-1,.5-1.7,1.2-2.4,2.4l.7-4h2l3-17c-.7-1.2-1.8-2-3.6-2.6h8.4l6.8,39.4c.7,3.6,1.5,5.6,4.9,6.7h-12.2c2.8-1.1,3.1-3,2.7-6.1h0ZM239.7,639.2l-2.4-13.9c-.1-.8-.3-1.4-.6-2l-2.8,15.9h5.8Z"/>
        <path class="cls-1" d="M278.4,657.1v-.6c-1.5,7-5.1,10.2-10,10.2-11.3,0-15.7-10.8-15.7-24.2s4.4-24.1,16.3-24.1,13.1,2.7,13.1,11.1-1.6,4.2-4.5,4.2c0-11.1-3.7-14.7-8.6-14.7-8.6,0-11.7,10.5-11.7,23.5s4.9,22.9,12.4,22.9,8.6-2.8,8.6-16.3v-.6c0-4.7,0-7.2-3.8-8.6h11.5c-3.8,1.3-3.8,3.9-3.8,8.6v8.6c0,4.7,0,7.2,3.8,8.6h-11.5c3.8-1.3,3.8-3.9,3.8-8.6h0Z"/>
        <path class="cls-1" d="M292.2,657.1v-29c0-4.7,0-7.2-3.8-8.6h4.2c4.4,0,5.9-1.1,9.8-1.1,11.3,0,13,5.5,13,8.4s-1.7,6.9-7,9.5c6.1,2.7,8.2,10.7,8.3,24.1,0,1.8,0,4.5,1.1,4.5-.1.4-.7,1.2-2.2,1.2s-3.4-.9-3.5-5.1c0-13-1.1-21.2-4.7-24.3-2.8,1.2-6.5,2.4-11.3,3.4v16.9c0,4.7,0,7.2,3.8,8.6h-11.5c3.8-1.3,3.8-3.9,3.8-8.6h0ZM310.9,626.4c0-2-.5-7.2-8.4-7.2s-4.2.5-6.3.8v19.5c10.1-2.8,14.8-7.1,14.8-13.1h0Z"/>
        <path class="cls-1" d="M319.5,642.6c0-13.3,6.2-24.1,22.1-24.1s22.1,10.8,22.1,24.1-6.2,24.2-22.1,24.2-22.1-10.8-22.1-24.2h0ZM341.6,666.1c12.5,0,17.5-10.5,17.5-23.5s-4.9-23.5-17.5-23.5-17.5,10.5-17.5,23.5,4.9,23.5,17.5,23.5Z"/>
        <path class="cls-1" d="M154.1,703.9c0-3.3,1.6-5.3,3.6-5.3,0,12.8,1.2,20.2,7.7,20.2s7.6-5.5,7.6-9.3c0-13.9-16.9-13.5-16.9-27.5s4.5-10.3,10.1-10.3,7.8,3.2,9.3,3.2v6.3c-2.8-6.8-5.1-8.9-8.8-8.9s-6.6,4-6.6,7.7c0,13.6,17.2,12,17.2,28.3s-4.9,11-11.6,11-11.7-4.8-11.7-15.5h0Z"/>
        <path class="cls-1" d="M188.7,710.3v-36.9h-.7c-4.7,0-6.5.9-8.6,9v-10.6c1.1.9,5.3.9,8.3.9h5.8c3,0,7.2,0,8.3-.9v10.6c-2-8.2-3.9-9-8.6-9h-.7v36.9c0,4.7,0,7.2,3.8,8.6h-11.5c3.8-1.3,3.8-3.9,3.8-8.6h0Z"/>
        <path class="cls-1" d="M207.9,681.3c0-4.7,0-7.2-3.8-8.6h11.5c-3.8,1.3-3.8,3.9-3.8,8.6v24.2c0,8.8.4,13.8,6.3,13.8s6.3-4.9,6.3-13.8v-24.2c0-4.7,0-7.2-3.8-8.6h11.5c-3.8,1.3-3.8,3.9-3.8,8.6v24.4c0,9.6-2.3,14.2-10.2,14.2h0c-7.9,0-10.2-4.6-10.2-14.2v-24.4h0Z"/>
        <path class="cls-1" d="M237.3,710.3v-29c0-4.7,0-7.2-3.8-8.6h4.2c4.4,0,5.9-1.1,11.8-1.1,15.2,0,23.6,10.8,23.6,24.1s-5.7,24.2-22.3,24.2-10-1.1-12.3-1.1h-5.1c3.8-1.3,3.8-3.9,3.8-8.6ZM249.5,719.2c12.8,0,19-10.5,19-23.5s-7.1-23.5-19-23.5-6.1.5-8.3.8v41.7c0,2.1,1.4,4.5,8.2,4.5h0Z"/>
        <path class="cls-1" d="M278.5,710.3v-29c0-4.7,0-7.2-3.8-8.6h11.5c-3.8,1.3-3.8,3.9-3.8,8.6v29c0,4.7,0,7.2,3.8,8.6h-11.5c3.8-1.3,3.8-3.9,3.8-8.6Z"/>
        <path class="cls-1" d="M286.5,695.7c0-13.3,6.2-24.1,22.1-24.1s22.1,10.8,22.1,24.1-6.2,24.2-22.1,24.2-22.1-10.8-22.1-24.2h0ZM308.6,719.2c12.5,0,17.5-10.5,17.5-23.5s-4.9-23.5-17.5-23.5-17.5,10.5-17.5,23.5,4.9,23.5,17.5,23.5Z"/>
        <path class="cls-1" d="M332.7,703.9c0-3.3,1.6-5.3,3.6-5.3,0,12.8,1.2,20.2,7.7,20.2s7.6-5.5,7.6-9.3c0-13.9-16.9-13.5-16.9-27.5s4.5-10.3,10.1-10.3,7.8,3.2,9.3,3.2v6.3c-2.8-6.8-5.1-8.9-8.8-8.9s-6.6,4-6.6,7.7c0,13.6,17.2,12,17.2,28.3s-4.9,11-11.6,11-11.7-4.8-11.7-15.5h0s0,0,0,0Z"/>
      </g>
    </g>
  </g>
</svg>